<svg xmlns="http://www.w3.org/2000/svg" width="1500" height="900" viewBox="0 0 1500 900" role="img" aria-labelledby="title desc">
  <title id="title">Systemuebersicht GardenIrrigationControl</title>
  <desc id="desc">Blockdiagramm fuer ESP32, 5 V Versorgung, 24 V AC Trafo, Taster, DHT11, SSR-Modul und neun Hunter PGV-101 Ventile.</desc>
  <defs>
    <style>
      .bg { fill: #fbfbf8; }
      .box { fill: #ffffff; stroke: #222; stroke-width: 2.5; rx: 8; }
      .group { fill: #f6f8fa; stroke: #98a2ad; stroke-width: 2; rx: 10; }
      .title { font-family: Arial, Helvetica, sans-serif; font-size: 30px; font-weight: 700; fill: #1f2328; }
      .group-title { font-family: Arial, Helvetica, sans-serif; font-size: 22px; font-weight: 700; fill: #1f2328; }
      .text { font-family: Arial, Helvetica, sans-serif; font-size: 20px; fill: #1f2328; }
      .small { font-family: Arial, Helvetica, sans-serif; font-size: 16px; fill: #3b4148; }
      .wire5 { stroke: #0b6bcb; stroke-width: 4; fill: none; stroke-linecap: round; stroke-linejoin: round; }
      .wire24 { stroke: #b42318; stroke-width: 4; fill: none; stroke-linecap: round; stroke-linejoin: round; }
      .wireio { stroke: #2f6f3e; stroke-width: 4; fill: none; stroke-linecap: round; stroke-linejoin: round; }
      .wiregnd { stroke: #6b7280; stroke-width: 4; fill: none; stroke-linecap: round; stroke-linejoin: round; }
      .label-bg { fill: #fbfbf8; stroke: none; }
    </style>
    <marker id="arrow5" markerWidth="12" markerHeight="12" refX="10" refY="6" orient="auto" markerUnits="strokeWidth">
      <path d="M 0 0 L 12 6 L 0 12 z" fill="#0b6bcb"/>
    </marker>
    <marker id="arrow24" markerWidth="12" markerHeight="12" refX="10" refY="6" orient="auto" markerUnits="strokeWidth">
      <path d="M 0 0 L 12 6 L 0 12 z" fill="#b42318"/>
    </marker>
    <marker id="arrowio" markerWidth="12" markerHeight="12" refX="10" refY="6" orient="auto" markerUnits="strokeWidth">
      <path d="M 0 0 L 12 6 L 0 12 z" fill="#2f6f3e"/>
    </marker>
    <marker id="arrowgnd" markerWidth="12" markerHeight="12" refX="10" refY="6" orient="auto" markerUnits="strokeWidth">
      <path d="M 0 0 L 12 6 L 0 12 z" fill="#6b7280"/>
    </marker>
  </defs>

  <rect class="bg" width="1500" height="900"/>
  <text class="title" x="60" y="60">Systemübersicht GardenIrrigationControl</text>

  <!-- Groups -->
  <rect class="group" x="60" y="105" width="310" height="290"/>
  <text class="group-title" x="85" y="140">Stromversorgung</text>

  <rect class="group" x="460" y="105" width="300" height="290"/>
  <text class="group-title" x="485" y="140">Steuerung</text>

  <rect class="group" x="60" y="470" width="310" height="300"/>
  <text class="group-title" x="85" y="505">Ein- / Ausgabe</text>

  <rect class="group" x="860" y="105" width="300" height="290"/>
  <text class="group-title" x="885" y="140">Relaismodul</text>

  <rect class="group" x="1220" y="105" width="220" height="665"/>
  <text class="group-title" x="1245" y="140">Ventile</text>

  <!-- Boxes -->
  <rect class="box" x="95" y="170" width="240" height="75"/>
  <text class="text" x="125" y="202">24 V AC Trafo</text>
  <text class="small" x="125" y="228">Ventilversorgung</text>

  <rect class="box" x="95" y="285" width="240" height="75"/>
  <text class="text" x="125" y="317">5 V USB-Adapter</text>
  <text class="small" x="125" y="343">ESP32 + SSR-Steuerseite</text>

  <rect class="box" x="500" y="195" width="220" height="110"/>
  <text class="text" x="545" y="235">ESP32</text>
  <text class="small" x="532" y="263">Dev Kit C V4</text>
  <text class="small" x="528" y="287">3,3 V GPIO</text>

  <rect class="box" x="95" y="535" width="240" height="75"/>
  <text class="text" x="125" y="567">9× Drucktaster</text>
  <text class="small" x="125" y="593">NO, gegen 3V3</text>

  <rect class="box" x="95" y="650" width="240" height="75"/>
  <text class="text" x="125" y="682">DHT11 Sensor</text>
  <text class="small" x="125" y="708">optional / GPIO prüfen</text>

  <rect class="box" x="900" y="195" width="220" height="110"/>
  <text class="text" x="940" y="232">8-Kanal SSR</text>
  <text class="small" x="922" y="260">+ 1 Zusatzrelais</text>
  <text class="small" x="932" y="284">LOW = aktiv</text>

  <rect class="box" x="1250" y="175" width="160" height="70"/>
  <text class="text" x="1285" y="218">Zone 1</text>
  <rect class="box" x="1250" y="255" width="160" height="70"/>
  <text class="text" x="1285" y="298">Zone 2</text>
  <rect class="box" x="1250" y="335" width="160" height="70"/>
  <text class="text" x="1285" y="378">Zone 3</text>
  <rect class="box" x="1250" y="415" width="160" height="70"/>
  <text class="text" x="1285" y="458">Zone 4</text>
  <rect class="box" x="1250" y="495" width="160" height="70"/>
  <text class="text" x="1285" y="538">Zone 5</text>
  <rect class="box" x="1250" y="575" width="160" height="70"/>
  <text class="text" x="1285" y="618">Zone 6</text>
  <rect class="box" x="1250" y="655" width="160" height="70"/>
  <text class="text" x="1268" y="690">Zone 7-9</text>
  <text class="small" x="1268" y="713">Hunter PGV-101</text>

  <!-- Connections -->
  <path class="wire5" d="M335 322 H500" marker-end="url(#arrow5)"/>
  <rect class="label-bg" x="382" y="296" width="80" height="24"/>
  <text class="small" x="388" y="314">5 V DC</text>

  <path class="wire5" d="M335 335 C520 410 735 405 900 285" marker-end="url(#arrow5)"/>
  <rect class="label-bg" x="565" y="385" width="150" height="24"/>
  <text class="small" x="572" y="403">5 V SSR-VCC</text>

  <path class="wireio" d="M720 230 H900" marker-end="url(#arrowio)"/>
  <rect class="label-bg" x="770" y="198" width="100" height="44"/>
  <text class="small" x="775" y="216">GPIO</text>
  <text class="small" x="775" y="236">LOW aktiv</text>

  <path class="wireio" d="M335 572 C410 560 450 340 500 270" marker-end="url(#arrowio)"/>
  <rect class="label-bg" x="355" y="512" width="125" height="24"/>
  <text class="small" x="360" y="530">Taster-GPIOs</text>

  <path class="wireio" d="M335 688 C430 675 455 330 500 285" marker-end="url(#arrowio)"/>
  <rect class="label-bg" x="360" y="640" width="90" height="24"/>
  <text class="small" x="366" y="658">DHT GPIO</text>

  <path class="wire24" d="M335 208 C560 135 760 130 900 220" marker-end="url(#arrow24)"/>
  <rect class="label-bg" x="575" y="126" width="130" height="24"/>
  <text class="small" x="582" y="144">24 V AC COM</text>

  <path class="wire24" d="M1120 245 H1250" marker-end="url(#arrow24)"/>
  <path class="wire24" d="M1120 255 C1175 280 1195 290 1250 290" marker-end="url(#arrow24)"/>
  <path class="wire24" d="M1120 265 C1180 330 1195 370 1250 370" marker-end="url(#arrow24)"/>
  <path class="wire24" d="M1120 275 C1180 400 1195 450 1250 450" marker-end="url(#arrow24)"/>
  <path class="wire24" d="M1120 285 C1180 470 1195 530 1250 530" marker-end="url(#arrow24)"/>
  <path class="wire24" d="M1120 295 C1180 540 1195 610 1250 610" marker-end="url(#arrow24)"/>
  <path class="wire24" d="M1120 305 C1180 610 1195 690 1250 690" marker-end="url(#arrow24)"/>
  <rect class="label-bg" x="1160" y="214" width="130" height="24"/>
  <text class="small" x="1166" y="232">24 V AC geschaltet</text>

  <path class="wire24" d="M335 225 C515 810 1135 810 1330 725"/>
  <rect class="label-bg" x="680" y="790" width="245" height="24"/>
  <text class="small" x="686" y="808">24 V AC gemeinsame Rückleitung</text>

  <path class="wiregnd" d="M720 285 C780 335 835 335 900 285" marker-end="url(#arrowgnd)"/>
  <rect class="label-bg" x="780" y="320" width="75" height="24"/>
  <text class="small" x="786" y="338">GND</text>
</svg>
