<svg xmlns="http://www.w3.org/2000/svg" width="980" height="520" viewBox="0 0 980 520" role="img" aria-labelledby="title desc">
  <title id="title">4-20 mA water level sensor with shunt resistor on ESP32 GPIO36</title>
  <desc id="desc">Schematic showing a 4-20 mA sensor loop converted to an ADC voltage by a 165 ohm shunt resistor connected from GPIO36 VP to GND.</desc>
  <defs>
    <style>
      .box { fill: #f8fafc; stroke: #334155; stroke-width: 2; rx: 10; }
      .sensor { fill: #ecfeff; stroke: #0891b2; stroke-width: 2; rx: 10; }
      .esp { fill: #f0fdf4; stroke: #16a34a; stroke-width: 2; rx: 10; }
      .wire { fill: none; stroke: #1f2937; stroke-width: 4; stroke-linecap: round; stroke-linejoin: round; }
      .pos { stroke: #dc2626; }
      .sig { stroke: #2563eb; }
      .gnd { stroke: #475569; }
      .label { font-family: Arial, Helvetica, sans-serif; font-size: 22px; fill: #0f172a; }
      .small { font-family: Arial, Helvetica, sans-serif; font-size: 17px; fill: #334155; }
      .tiny { font-family: Arial, Helvetica, sans-serif; font-size: 15px; fill: #475569; }
      .pin { fill: #fff; stroke: #334155; stroke-width: 2; }
      .node { fill: #111827; }
      .resistor { fill: none; stroke: #111827; stroke-width: 3; stroke-linecap: round; stroke-linejoin: round; }
    </style>
  </defs>

  <rect x="30" y="40" width="190" height="125" class="box"/>
  <text x="125" y="85" text-anchor="middle" class="label">DC Versorgung</text>
  <text x="125" y="118" text-anchor="middle" class="small">laut Sensor-Datenblatt</text>
  <circle cx="210" cy="80" r="8" class="pin"/>
  <text x="178" y="73" class="small">+</text>
  <circle cx="210" cy="130" r="8" class="pin"/>
  <text x="171" y="137" class="small">GND</text>

  <rect x="365" y="42" width="230" height="150" class="sensor"/>
  <text x="480" y="88" text-anchor="middle" class="label">4-20 mA Sensor</text>
  <text x="480" y="121" text-anchor="middle" class="small">Fuellstand / Zisterne</text>
  <circle cx="375" cy="80" r="8" class="pin"/>
  <text x="392" y="86" class="small">+</text>
  <circle cx="585" cy="150" r="8" class="pin"/>
  <text x="501" y="156" class="small">Iout / Sensor -</text>

  <rect x="720" y="80" width="210" height="145" class="esp"/>
  <text x="825" y="126" text-anchor="middle" class="label">ESP32</text>
  <text x="825" y="158" text-anchor="middle" class="small">ADC1 Eingang</text>
  <circle cx="730" cy="190" r="8" class="pin"/>
  <text x="748" y="196" class="small">GPIO36 / VP</text>
  <circle cx="730" cy="120" r="8" class="pin"/>
  <text x="748" y="126" class="small">GND</text>

  <path d="M210 80 H375" class="wire pos"/>
  <text x="292" y="66" text-anchor="middle" class="tiny">Sensor +</text>

  <path d="M210 130 V380 H535" class="wire gnd"/>
  <path d="M535 380 H730 V120" class="wire gnd"/>
  <text x="352" y="405" text-anchor="middle" class="tiny">gemeinsame Masse</text>

  <path d="M585 150 H650 V190 H730" class="wire sig"/>
  <circle cx="650" cy="190" r="7" class="node"/>
  <text x="648" y="176" text-anchor="middle" class="tiny">ADC-Knoten</text>

  <path d="M650 190 V235" class="wire sig"/>
  <path d="M650 235 l-25 14 l50 28 l-50 28 l50 28 l-50 28 l25 14" class="resistor"/>
  <path d="M650 375 V380 H535" class="wire gnd"/>
  <text x="705" y="305" class="label">Rshunt</text>
  <text x="705" y="333" class="small">165 Ohm</text>
  <text x="705" y="361" class="tiny">0,66-3,3 V bei 4-20 mA</text>

  <text x="490" y="255" text-anchor="middle" class="small">Der Strom des Sensors fliesst durch den Shunt.</text>
  <text x="490" y="282" text-anchor="middle" class="small">Der ESP32 misst die Spannung ueber dem Shunt.</text>
  <text x="490" y="470" text-anchor="middle" class="tiny">Wichtig: GPIO36 darf maximal 3,3 V sehen. Keine 24 V AC an den ADC anschliessen.</text>
</svg>
